<svg width="25" height="14" viewBox="0 0 25 14" fill="none" xmlns="http://www.w3.org/2000/svg">
<path opacity="0.56" d="M21.4031 7L18.6622 4.25912L20.0595 1.51823L24.5202 5.97889C25.1113 6.57006 25.1113 7.48369 24.5202 8.02112L18.9846 13.5566C18.3935 14.1478 17.4798 14.1478 16.9424 13.5566C16.3512 12.9655 16.3512 12.0518 16.9424 11.5144L21.4031 7Z" fill="#28B9E5"/>
<path d="M16.9424 0.443378C17.5336 -0.147793 18.4472 -0.147793 18.9846 0.443378L20.0058 1.46449L8.02111 13.5566C7.42994 14.1478 6.51632 14.1478 5.97889 13.5566L4.95777 12.5355L16.9424 0.443378ZM11.7831 4.20537L9.74088 6.2476L7 3.50672L3.56046 7L6.30134 9.74088L4.90403 12.4818L0.443378 8.02112C-0.147793 7.42994 -0.147793 6.51631 0.443378 5.97889L5.92514 0.443378C6.51632 -0.147793 7.42994 -0.147793 7.96737 0.443378L11.7831 4.20537Z" fill="#28B9E5"/>
</svg>
