<svg width="139" height="23" viewBox="0 0 139 23" fill="none" xmlns="http://www.w3.org/2000/svg">
<path d="M38.487 3.60547H41.4948V15.4121H48.6237V18H38.487V3.60547ZM56.8643 16.0371C57.6781 16.0371 58.3031 15.7474 58.7393 15.168C59.1755 14.5885 59.3936 13.765 59.3936 12.6973C59.3936 11.6296 59.1755 10.8092 58.7393 10.2363C58.3031 9.6569 57.6781 9.36719 56.8643 9.36719C56.0505 9.36719 55.4223 9.6569 54.9795 10.2363C54.5433 10.8092 54.3253 11.6296 54.3253 12.6973C54.3253 13.765 54.5433 14.5885 54.9795 15.168C55.4223 15.7474 56.0505 16.0371 56.8643 16.0371ZM62.3135 12.6973C62.3135 14.2598 61.8643 15.5977 60.9659 16.7109C60.0674 17.8177 58.7035 18.3711 56.8741 18.3711C55.0447 18.3711 53.6807 17.8177 52.7823 16.7109C51.8838 15.5977 51.4346 14.2598 51.4346 12.6973C51.4346 11.1608 51.8838 9.82943 52.7823 8.70312C53.6807 7.57682 55.0447 7.01367 56.8741 7.01367C58.7035 7.01367 60.0674 7.57682 60.9659 8.70312C61.8643 9.82943 62.3135 11.1608 62.3135 12.6973ZM68.6889 7.35547V13.7715C68.6889 14.377 68.7605 14.8327 68.9038 15.1387C69.1577 15.679 69.6557 15.9492 70.3979 15.9492C71.3484 15.9492 71.9995 15.5651 72.351 14.7969C72.5333 14.3802 72.6245 13.8301 72.6245 13.1465V7.35547H75.4467V18H72.7417V16.4961C72.7156 16.5286 72.6505 16.6263 72.5463 16.7891C72.4422 16.9518 72.3185 17.0951 72.1753 17.2188C71.7391 17.6094 71.3159 17.8763 70.9057 18.0195C70.5021 18.1628 70.0268 18.2344 69.4799 18.2344C67.9044 18.2344 66.8432 17.668 66.2963 16.5352C65.9904 15.9102 65.8374 14.9889 65.8374 13.7715V7.35547H68.6889ZM85.5233 7.10156C85.5754 7.10156 85.6177 7.10482 85.6502 7.11133C85.6893 7.11133 85.7707 7.11458 85.8944 7.12109V9.97266C85.7186 9.95312 85.5624 9.9401 85.4256 9.93359C85.2889 9.92708 85.1782 9.92383 85.0936 9.92383C83.9738 9.92383 83.2219 10.2884 82.8377 11.0176C82.6229 11.4277 82.5155 12.0592 82.5155 12.9121V18H79.7127V7.35547H82.369V9.21094C82.7987 8.5013 83.173 8.01628 83.492 7.75586C84.0129 7.31966 84.69 7.10156 85.5233 7.10156ZM95.6975 7.35547H98.6858L94.8479 18H91.9085L88.0901 7.35547H91.2151L93.4319 15.207L95.6975 7.35547ZM106.067 9.36719C105.423 9.36719 104.921 9.56901 104.563 9.97266C104.212 10.3763 103.99 10.9232 103.899 11.6133H108.225C108.18 10.8776 107.955 10.321 107.551 9.94336C107.154 9.55924 106.659 9.36719 106.067 9.36719ZM106.067 7.07227C106.952 7.07227 107.75 7.23828 108.46 7.57031C109.169 7.90234 109.755 8.42643 110.217 9.14258C110.634 9.77409 110.904 10.5065 111.028 11.3398C111.1 11.8281 111.129 12.5312 111.116 13.4492H103.831C103.87 14.5169 104.205 15.2656 104.837 15.6953C105.221 15.9622 105.683 16.0957 106.223 16.0957C106.796 16.0957 107.262 15.9329 107.62 15.6074C107.815 15.4316 107.988 15.1875 108.137 14.875H110.979C110.908 15.5065 110.579 16.1478 109.993 16.7988C109.081 17.834 107.805 18.3516 106.165 18.3516C104.811 18.3516 103.616 17.9154 102.581 17.043C101.546 16.1706 101.028 14.7513 101.028 12.7852C101.028 10.9427 101.493 9.52995 102.424 8.54688C103.362 7.5638 104.576 7.07227 106.067 7.07227ZM120.499 7.10156C121.599 7.10156 122.498 7.39128 123.194 7.9707C123.898 8.54362 124.249 9.4974 124.249 10.832V18H121.398V11.5254C121.398 10.9655 121.323 10.5358 121.173 10.2363C120.899 9.68945 120.379 9.41602 119.61 9.41602C118.666 9.41602 118.019 9.81641 117.667 10.6172C117.485 11.0404 117.394 11.5807 117.394 12.2383V18H114.62V7.375H117.306V8.92773C117.664 8.38086 118.002 7.98698 118.321 7.74609C118.894 7.31641 119.62 7.10156 120.499 7.10156ZM130.595 14.6016C130.654 15.0964 130.781 15.4479 130.976 15.6562C131.321 16.0273 131.959 16.2129 132.89 16.2129C133.437 16.2129 133.87 16.1315 134.189 15.9688C134.514 15.806 134.677 15.5618 134.677 15.2363C134.677 14.9238 134.547 14.6862 134.287 14.5234C134.026 14.3607 133.059 14.0807 131.386 13.6836C130.182 13.3841 129.332 13.0098 128.837 12.5605C128.343 12.1178 128.095 11.4798 128.095 10.6465C128.095 9.66341 128.479 8.82031 129.248 8.11719C130.022 7.40755 131.109 7.05273 132.509 7.05273C133.837 7.05273 134.918 7.31966 135.751 7.85352C136.591 8.38086 137.073 9.29557 137.197 10.5977H134.414C134.374 10.2396 134.274 9.95638 134.111 9.74805C133.805 9.37044 133.284 9.18164 132.548 9.18164C131.943 9.18164 131.51 9.27604 131.249 9.46484C130.996 9.65365 130.869 9.875 130.869 10.1289C130.869 10.4479 131.005 10.679 131.279 10.8223C131.552 10.972 132.519 11.2292 134.179 11.5938C135.286 11.8542 136.116 12.248 136.669 12.7754C137.216 13.3092 137.49 13.9766 137.49 14.7773C137.49 15.832 137.096 16.6947 136.308 17.3652C135.527 18.0293 134.316 18.3613 132.675 18.3613C131.002 18.3613 129.765 18.0098 128.964 17.3066C128.17 16.597 127.773 15.6953 127.773 14.6016H130.595Z" fill="#E0E9EB"/>
<path opacity="0.56" d="M21.4031 11L18.6622 8.25912L20.0595 5.51823L24.5202 9.97889C25.1113 10.5701 25.1113 11.4837 24.5202 12.0211L18.9846 17.5566C18.3935 18.1478 17.4798 18.1478 16.9424 17.5566C16.3512 16.9655 16.3512 16.0518 16.9424 15.5144L21.4031 11Z" fill="#28B9E5"/>
<path d="M16.9424 4.44338C17.5336 3.85221 18.4472 3.85221 18.9846 4.44338L20.0058 5.46449L8.02111 17.5566C7.42994 18.1478 6.51632 18.1478 5.97889 17.5566L4.95777 16.5355L16.9424 4.44338ZM11.7831 8.20537L9.74088 10.2476L7 7.50672L3.56046 11L6.30134 13.7409L4.90403 16.4818L0.443378 12.0211C-0.147793 11.4299 -0.147793 10.5163 0.443378 9.97889L5.92514 4.44338C6.51632 3.85221 7.42994 3.85221 7.96737 4.44338L11.7831 8.20537Z" fill="#28B9E5"/>
</svg>
